<svg width="180" height="180" fill="none" xmlns="http://www.w3.org/2000/svg"><path d="M89.89 179.538l-73.509-14.42L0 35.283h180l-16.398 129.814-73.712 14.441z" fill="#264DE4"/><path d="M149.563 156.831l14.013-110.932H90V168.5l59.563-11.669z" fill="#2965F1"/><path d="M37.553 94.053l2.02 15.924H90V94.053H37.553zm-4.058-32.23l2.049 15.924H90V61.823H33.495zM90 135.409l-.099.018-25.096-4.788-1.604-12.7H40.58l3.157 25.002 46.16 9.055.103-.02v-16.567z" fill="#EBEBEB"/><path d="M42.362 0h27.292v8.065H53.776v8.065h15.88v8.066H42.361V0zm32.751 0h27.293v7.013h-15.88v1.403h15.88v16.13H75.113v-7.364h15.88V15.78h-15.88V0zm32.751 0h27.293v7.013h-15.879v1.403h15.879v16.13h-27.293v-7.364h15.88V15.78h-15.88V0z" fill="#C4C4C4"/><path d="M142.302 94.053l4.068-32.23H89.922v15.924h31.753l-2.05 16.306H89.922v15.923h27.748l-2.615 20.652-25.133 4.793v16.567l46.196-9.047.339-2.691 5.295-41.921.55-4.276z" fill="#fff"/></svg>