<svg width="50" height="51" fill="none" xmlns="http://www.w3.org/2000/svg"><path d="M27.342 50.169c-7.835 0-14.27-1.906-19.123-5.663C2.766 40.299 0 34.2 0 26.38c0-7.632 2.684-13.996 7.977-18.915C13.11 2.71 19.53.297 27.056.297c5.806 0 11.036 1.808 15.544 5.375 4.91 3.886 7.4 8.816 7.4 14.653 0 4.86-1.603 9.223-4.764 12.968-3.347 3.956-7.438 5.962-12.158 5.962-2.33 0-4.09-.76-5.242-2.263-2.135 1.502-4.39 2.263-6.709 2.263-3.017 0-5.496-1.343-7.368-3.992-1.646-2.354-2.478-5.111-2.478-8.198 0-3.92 1.262-7.65 3.752-11.086 2.74-3.795 6.054-5.72 9.846-5.72 1.505 0 2.65.198 3.504.605.597.287 1.186.741 1.762 1.355.16-.417.359-.741.6-.977.495-.481 1.32-.715 2.525-.715 3.345 0 3.845 2.016 3.845 3.218 0 .21-.019.437-.055.692l-2.227 13.735c-.55 3.395-.611 4.053-.612 4.178 0 .263 0 .395.484.395.4 0 1.18-.218 2.624-1.257 1.602-1.15 2.846-2.815 3.696-4.95.774-1.931 1.166-4.054 1.166-6.312 0-4.317-1.487-7.677-4.547-10.272-2.853-2.429-6.488-3.66-10.805-3.66-5.512 0-10.143 1.91-13.764 5.676-3.624 3.767-5.461 8.534-5.461 14.165 0 5.774 1.912 10.263 5.684 13.34 3.49 2.842 8.23 4.282 14.09 4.282 5.424 0 10.016-1.597 13.651-4.748a96.709 96.709 0 012.569-2.817c.848-.865 1.886-1.297 3.096-1.297.734 0 1.399.304 1.922.879.515.57.774 1.233.774 1.971 0 .894-.44 1.973-1.346 3.298-.681 1.017-1.407 1.895-2.153 2.606-2.29 2.134-5.225 3.796-8.732 4.947a31.464 31.464 0 01-9.827 1.573zm-.286-48.417c-7.162 0-13.26 2.284-18.121 6.79-4.983 4.63-7.51 10.633-7.51 17.838 0 7.34 2.574 13.048 7.653 16.966 4.602 3.562 10.747 5.368 18.264 5.368 3.193 0 6.353-.506 9.393-1.503 3.31-1.086 6.07-2.645 8.2-4.631.665-.633 1.322-1.43 1.948-2.364.905-1.324 1.094-2.073 1.094-2.47 0-.367-.13-.69-.396-.985-.255-.28-.534-.411-.876-.411-.83 0-1.51.281-2.079.86a93.427 93.427 0 00-2.55 2.798.672.672 0 01-.072.074c-3.907 3.404-8.823 5.13-14.614 5.13-6.19 0-11.23-1.548-14.98-4.6-4.127-3.368-6.22-8.238-6.22-14.477 0-6.027 1.975-11.136 5.87-15.185 3.899-4.055 8.871-6.112 14.78-6.112 4.66 0 8.602 1.345 11.717 3.998 3.356 2.847 5.059 6.679 5.059 11.39 0 2.446-.428 4.756-1.272 6.862-.954 2.395-2.366 4.276-4.194 5.589-1.424 1.024-2.551 1.523-3.444 1.523-1.195 0-1.909-.692-1.909-1.85 0-.158 0-.525.632-4.417l2.225-13.722c.024-.169.037-.33.037-.466 0-.872-.288-1.764-2.42-1.764-1.133 0-1.466.239-1.541.312-.104.102-.365.463-.526 1.603a.721.721 0 01-.534.602.705.705 0 01-.748-.278c-.722-1.017-1.443-1.703-2.143-2.04-.65-.31-1.626-.467-2.9-.467-3.362 0-6.208 1.678-8.7 5.13-2.305 3.181-3.474 6.62-3.474 10.221 0 2.778.744 5.25 2.21 7.35 1.61 2.276 3.643 3.385 6.212 3.385 2.221 0 4.392-.812 6.453-2.414a.704.704 0 011.044.209c.858 1.483 2.315 2.204 4.454 2.204 4.348 0 7.972-1.785 11.08-5.457 2.93-3.472 4.417-7.516 4.417-12.017 0-5.365-2.304-9.908-6.847-13.504-4.252-3.362-9.189-5.068-14.672-5.068zm-4.59 32.864c-2.016 0-4.42-.945-4.42-5.446 0-2.543.74-5.428 2.199-8.575 1.775-3.877 3.899-5.843 6.31-5.843.805 0 1.91.318 2.605 1.836.39.8.592 1.774.592 2.875 0 2.195-.65 5.085-1.935 8.592-1.593 4.414-3.344 6.56-5.351 6.56zm4.088-18.41c-1.81 0-3.498 1.685-5.02 5.009-1.37 2.954-2.063 5.63-2.063 7.955 0 1.858.34 3.991 2.994 3.991 1.284 0 2.71-1.993 4.016-5.612 1.226-3.346 1.847-6.066 1.847-8.085 0-.875-.152-1.63-.452-2.243-.411-.901-.922-1.015-1.322-1.015z" fill="#602D2D"/></svg>