<svg width="120" height="179" fill="none" xmlns="http://www.w3.org/2000/svg"><path d="M92.582 173.604l2.557-28.617 7.059-8.095s-16.068 4.415-42.969 4.415-42.726-4.334-42.726-4.334l7.912 8.831 2.8 27.8c0 2.98 14.632 5.396 32.683 5.396 18.05 0 32.684-2.416 32.684-5.396zM84.516 39.967l5.367-14.249 29.719-21.005-7.833-4.481-31.463 22.376-6.231 17.022A621.553 621.553 0 0060 39.474c-33.137 0-60 2.537-60 5.665 0 3.13 26.863 5.666 60 5.666s60-2.537 60-5.666c0-2.303-14.569-4.286-35.484-5.171z" fill="#D34A47"/><path d="M81.395 47.946s-1.162.175-4.581.185c-3.42.01-5.848-.015-6.816-.607a.877.877 0 01-.4-.688c.002-.406.432-.646.98-.796l.517.546c-.225.052-.354.114-.354.18-.002.308 3.496.52 6.172.497 2.677-.022 5.91-.17 5.914-.475 0-.092-.245-.179-.67-.247l.515-.542c.694.145 1.299.424 1.297.908-.006.822-1.564.947-2.574 1.04z" fill="#fff"/><path d="M119.544 4.755c.747-.58-.387-2.063-2.533-3.312-2.147-1.248-4.493-1.79-5.242-1.21-.747.58.387 2.062 2.534 3.31 2.146 1.25 4.493 1.792 5.241 1.212zm-28.392 98.949c-.704-4.552 14.823-11.144 10.838-11.355-8.578.33-12.847 6.752-17.163 13.479-1.582 2.466-6.994 12.979-10.543 11.685-3.549-1.294 4.6-9.939 6.884-15.073-2.635 1.298-12.3 6.342-14.791 1.618-4.005 2.285-12.562 3.522-11.597-2.479-2.13 2.535-6.912 6.074-12.65 4.604-7.538-1.931 4.366-18.058 7.327-17.244 2.96.813-.598 4.487-1.53 5.913-2.049 3.14-4.416 7.087-2.835 7.894 2.71 1.385 10.083-5.236 10.247-5.381 1.379-1.224 5.307-9.23 8.474-8.31 3.166.918-7.898 11.489-3.761 13.587.834.423 4.248-.261 6.325-1.77 1.343-.977.881-3.14 5.36-10.314 4.48-7.174 8.471-16.109 11.543-15.428 3.072.68.54 5.266-.562 6.975-5.171 8.024-14.113 21.279-9.896 20.276 4.217-1.003 6.413-1.062 10.542-4.308 4.13-3.246 3.94-8.593 6.692-8.479 2.753.114 2.29 1.828 1.623 3.134 2.71-2.083 12.841-6.468 15.287-2.125 2.898 5.142-14.496 12.57-10.16 12.191 4.229-.369 11.079-3.284 14.004-5.933l8.051-48.616s-8.101 4.503-59.64 4.503S.42 48.338.42 48.338l6.854 44.375c3.638-6.945 12.277-20.993 25.895-20.521 6.194.214 14.464 8.226 7.38 8.497-2.998.115-3.303-3.999-6.853-4.603-2.562-.436-6.129.963-8.434 2.479-4.597 3.022-14.485 14.946-13.178 20.89 1.664 7.579 15.57-2.633 17.922-5.665 1.657-2.136 2.777-8.464 6.4-7.8 3.625.664-.316 7.195-2.943 12.968-2.95 6.483-4.502 13.322-8.201 12.536-3.7-.786 2.326-9.156 2.108-10.622-3.477 2.154-9.882 7.609-18.077 4.909l4.257 27.557s11.313 6.004 45.393 6.004 45.812-5.911 45.812-5.911l5.285-31.916c-4.324 2.828-18.01 7.851-18.887 2.189z" fill="#D34A47"/></svg>