<svg width="180" height="180" fill="none" xmlns="http://www.w3.org/2000/svg"><path d="M180.313 35.374l-16.398 130.148L90.203 180l-73.509-14.457L.313 35.374h180z" fill="#E44D26"/><path d="M90.313 168.934l59.563-11.699 14.013-111.217H90.313v122.916z" fill="#F16529"/><path d="M58.435 77.947h31.878V61.982H33.808l.54 4.284 5.538 43.994h50.427V94.295H60.494l-2.059-16.348zm5.079 40.295H40.893l3.157 25.067 46.16 9.078.103-.02v-16.61l-.099.018-25.096-4.801-1.604-12.732z" fill="#EBEBEB"/><path d="M17.06 0h11.452v8.016h10.475V0H50.44v24.273H38.988v-8.128H28.512v8.128H17.061V0zm48.439 8.05H55.417V0h31.62v8.05H76.95v16.223H65.499V8.05zM92.055 0h11.941l7.345 8.529L118.679 0h11.945v24.273H119.22v-12.03l-7.879 8.63h-.197l-7.884-8.63v12.03H92.055V0zm44.269 0h11.455v16.25h16.104v8.023h-27.559V0z" fill="#C4C4C4"/><path d="M90.235 110.259h27.748l-2.615 20.705-25.133 4.806v16.609l46.196-9.07.339-2.697 5.295-42.03.55-4.287h-52.38v15.964zm0-32.351v.04h54.431l.452-3.59 1.027-8.093.538-4.283H90.235v15.926z" fill="#fff"/></svg>