<svg width="180" height="180" fill="none" xmlns="http://www.w3.org/2000/svg"><path d="M1.295 1.791H143.74v176.418H1.295V1.791z" fill="#F7DF1E"/><path d="M96.441 140.12c2.855 5.879 6.569 10.2 13.139 10.2 5.518 0 9.043-3.479 9.043-8.284 0-5.758-3.621-7.799-9.696-11.149l-3.328-1.801c-9.611-5.162-15.995-11.631-15.995-25.306 0-12.596 7.61-22.185 19.505-22.185 8.467 0 14.556 3.717 18.942 13.448l-10.371 8.397c-2.283-5.164-4.746-7.198-8.571-7.198-3.902 0-6.374 3.121-6.374 7.198 0 5.037 2.475 7.078 8.189 10.199l3.33 1.799c11.316 6.12 17.704 12.358 17.704 26.385 0 15.119-9.418 23.405-22.069 23.405-12.37 0-20.36-7.432-24.27-17.174 0-.004 10.822-7.934 10.822-7.934zm48.044 0c2.854 5.879 6.568 10.2 13.138 10.2 5.519 0 9.044-3.479 9.044-8.284 0-5.758-3.621-7.799-9.696-11.149l-3.329-1.801c-9.61-5.162-15.994-11.631-15.994-25.306 0-12.596 7.609-22.185 19.504-22.185 8.468 0 14.556 3.717 18.942 13.448l-10.371 8.397c-2.283-5.164-4.746-7.198-8.571-7.198-3.901 0-6.373 3.121-6.373 7.198 0 5.037 2.475 7.078 8.188 10.199l3.33 1.799C173.612 121.556 180 127.794 180 141.821c0 15.12-9.418 23.405-22.069 23.405-12.369 0-20.36-7.432-24.27-17.174l10.824-7.932zm-95.09 1.457c2.092 4.682 3.996 8.639 8.571 8.639 4.376 0 7.136-2.159 7.136-10.554v-57.11h13.316v57.336c0 17.389-8.085 25.306-19.887 25.306-10.663 0-16.838-6.96-19.98-15.341l10.844-8.276s0-.002 0 0z" fill="#C4C4C4"/></svg>