<svg width="50" height="51" fill="none" xmlns="http://www.w3.org/2000/svg"><path d="M24.18.654c-.227.015-.692.05-1.036.074-4.69.323-9.275 2.03-13.093 4.88a24.951 24.951 0 00-8.5 11.373 24.707 24.707 0 00-1.443 6.666c-.144 1.972-.144 1.847 0 3.839.16 2.214.665 4.53 1.443 6.646 2.517 6.852 7.98 12.301 14.85 14.811a24.885 24.885 0 006.684 1.439c1.977.144 1.852.144 3.85 0 4.662-.34 9.22-2.047 13.014-4.877a24.951 24.951 0 008.5-11.373 24.703 24.703 0 001.443-6.665c.144-1.973.144-1.848 0-3.84a24.816 24.816 0 00-1.443-6.645A24.999 24.999 0 0033.6 2.17 24.95 24.95 0 0026.895.732c-.321-.024-.833-.059-1.138-.082a9.285 9.285 0 00-1.579.004zm2.442 2.962c3.979.273 7.852 1.668 11.178 4.03a22.707 22.707 0 014.486 4.257c1.77 2.23 3.123 4.833 3.9 7.503.657 2.265.942 4.603.852 7a21.758 21.758 0 01-4.052 11.877 22.149 22.149 0 01-13.019 8.711 22.141 22.141 0 01-13.092-.982c-7.441-2.95-12.749-9.756-13.757-17.649-.13-.994-.168-1.676-.168-2.806 0-1.13.039-1.813.168-2.807a21.847 21.847 0 013.459-9.28C10.767 7.147 17.87 3.406 25.39 3.56c.356.008.91.032 1.23.055z" fill="#602D2D"/><path d="M19.685 8.714c-.285.113-2.548 1.438-2.69 1.575-.323.312-.394.795-.175 1.216.336.65 4.518 7.815 4.631 7.932.239.253.653.37.99.277.21-.055 2.622-1.447 2.794-1.61.265-.25.379-.698.265-1.03-.031-.085-1.075-1.92-2.321-4.072-1.544-2.67-2.314-3.964-2.423-4.073a1.003 1.003 0 00-1.071-.215zm-4.377 3.419c-2.685 1.648-3.346 3.071-2.986 6.408.664 6.158 4.967 14.554 10.216 19.929 1.489 1.531 3.31 2.923 4.584 3.511.758.351 1.286.472 2.08.472.824-.004 1.414-.14 2.344-.553.473-.21 1.47-.749 1.454-.784-.008-.015-1.067-1.843-2.349-4.065l-2.337-4.042-.242.109c-1.477.67-3.193.144-4.893-1.493-1.048-1.01-1.923-2.221-2.646-3.672-.891-1.785-1.317-3.36-1.325-4.891-.004-1.025.176-1.7.618-2.366.203-.304.496-.604.73-.745.059-.035.106-.085.106-.113 0-.027-.489-.896-1.09-1.929-.598-1.037-1.642-2.837-2.318-4.007-.676-1.17-1.255-2.128-1.286-2.136-.031-.004-.328.16-.66.367zm16.785 17.633c-.195.031-.261.066-1.618.846-.613.35-1.176.698-1.25.764-.278.265-.391.71-.262 1.064.094.265 4.557 7.94 4.706 8.092a1.02 1.02 0 001.14.222c.403-.179 2.522-1.43 2.658-1.567.211-.206.286-.424.27-.775l-.016-.285-1.872-3.235c-1.031-1.782-2.06-3.555-2.286-3.949-.227-.394-.469-.783-.54-.865-.21-.246-.582-.37-.93-.312z" fill="#602D2D"/></svg>