<svg width="180" height="180" fill="none" xmlns="http://www.w3.org/2000/svg"><path d="M154.994 103.209c-6.28.044-11.737 2.055-16.307 5.029-1.677-4.417-3.354-8.352-3.65-11.238-.328-3.367-.723-5.422-.328-9.445.394-4.023 2.169-9.752 2.137-10.189-.033-.437-.395-2.492-4.011-2.536-3.617-.044-6.74.918-7.102 2.186-.362 1.268-1.052 4.154-1.512 7.128-.625 4.373-7.234 19.984-11.014 28.161-1.217-3.192-2.269-5.991-2.499-8.221-.329-3.367-.723-5.422-.329-9.445.395-4.023 2.17-9.752 2.137-10.189-.033-.437-.394-2.493-4.011-2.536-3.617-.044-6.74.918-7.102 2.186-.361 1.268-.756 4.242-1.512 7.128s-9.535 28.948-11.836 35.682a235.587 235.587 0 01-2.926 8.089s-.033.132-.132.35c-.624 1.618-.986 2.493-.986 2.493v.043c-.493 1.181-1.02 2.274-1.282 2.274-.197 0-.559-3.148.066-7.433 1.315-9.052 4.438-23.132 4.405-23.613 0-.263.592-2.712-2.038-3.98-2.565-1.268-3.485.831-3.715.831-.23 0-.395.744-.395.744s2.86-15.83-5.458-15.83c-5.194 0-12.362 7.565-15.912 14.387a4043.412 4043.412 0 00-12.1 8.789c-1.94 1.443-3.945 2.886-5.819 4.241-.131-.175-.263-.393-.394-.568-10.06-14.299-28.67-24.4-27.88-43.597.295-6.996 2.104-25.362 35.737-47.663C76.91 8.32 98.939 13.349 102.751 24.499c5.458 15.917-11.803 45.477-40.406 49.762-10.916 1.618-16.636-3.979-18.083-6.078-1.512-2.186-1.742-2.317-2.301-1.88-.921.656-.33 2.624 0 3.76.854 2.974 4.372 8.221 10.323 10.801 5.26 2.274 18.05 3.542 33.535-4.416 17.327-8.92 30.873-33.714 26.894-54.485C108.735.886 82.433-6.067 57.545 5.696c-14.795 6.997-30.84 18.016-42.38 32.359C1.455 55.109-.715 69.932.173 76.142c3.19 22.039 26.04 36.381 35.18 47.007-.461.35-.889.656-1.25.918-4.57 3.018-21.995 15.13-26.335 27.943-4.932 14.517.789 24.924 4.57 26.324 11.737 4.329 23.803-3.455 30.28-16.311s5.688-29.56 2.696-37.212a.987.987 0 00-.131-.263c1.183-.918 2.4-1.88 3.583-2.798a168.711 168.711 0 016.609-4.941c-1.118 4.066-1.94 8.92-2.335 15.917-.493 8.22 2.039 18.89 5.36 23.088 1.479 1.836 3.221 1.88 4.34 1.88 3.879 0 5.621-4.285 7.561-9.358 2.367-6.209 4.504-13.424 4.504-13.424s-2.663 19.503 4.57 19.503c2.63 0 5.294-4.548 6.477-6.866v.044s.066-.131.198-.437c.263-.569.427-.918.427-.918v-.088c1.052-2.449 3.42-8.002 6.937-17.229 4.537-11.894 8.91-26.761 8.91-26.761s.395 3.629 1.743 9.664c.789 3.542 2.432 7.433 3.748 11.194a76.478 76.478 0 01-1.71 3.061l.033.044c-.855 1.486-1.776 3.104-2.795 4.679-3.583 5.684-7.858 12.2-8.45 14.08-.69 2.23-.525 3.848.79 5.16.953.962 2.663 1.093 4.405.962 3.222-.306 5.491-1.356 6.609-2.012a20.986 20.986 0 005.688-3.979c3.518-3.454 5.655-8.396 5.457-14.911-.098-3.586-.986-7.171-2.071-10.538.329-.613.625-1.225.953-1.837 5.557-10.801 9.864-22.651 9.864-22.651s.394 3.63 1.742 9.664c.658 3.061 2.006 6.384 3.189 9.62-5.227 5.641-8.449 12.2-9.6 16.485-2.071 7.959-.46 11.544 2.597 12.375 1.381.394 3.354-.481 4.801-1.312 1.841-.787 4.011-2.142 6.082-4.154 3.518-3.454 6.904-8.264 6.707-14.78-.099-2.973-.69-5.903-1.512-8.745 4.438-2.449 10.159-3.805 17.458-2.668 15.65 2.449 18.74 15.436 18.148 20.902a14.078 14.078 0 01-4.964 9.358c-1.085.918-1.447 1.224-1.348 1.88.131.962.657.919 1.578.744 1.282-.306 8.219-4.417 8.515-14.474.493-12.856-8.712-26.893-24.987-26.762zM34.267 157.344c-5.195 7.522-12.428 10.364-15.551 7.959-3.354-2.58-2.038-13.687 4.34-21.645 3.88-4.854 8.877-9.358 12.198-12.113.756-.612 1.873-1.487 3.221-2.58.23-.175.362-.262.362-.262l.79-.656c2.334 11.369.098 21.383-5.36 29.297zm37.81-34.195c-1.809 5.86-5.59 20.858-7.891 20.028-1.973-.7-3.19-12.069-.395-23.307 1.414-5.641 4.406-12.375 6.148-14.999 2.828-4.198 5.951-5.597 6.708-3.892.953 2.23-3.453 18.497-4.57 22.17zm31.2 19.853c-.756.524-1.479.874-1.808.612-.23-.175.329-.875.329-.875s3.912-5.597 5.458-8.133c.887-1.487 1.939-3.236 3.057-5.204v.569c0 6.69-4.866 11.194-7.036 13.031zm24.067-7.303c-.559-.525-.46-2.274 1.414-7.74.723-2.142 2.433-5.728 5.359-9.183.329 1.4.559 2.755.526 4.023-.033 8.44-4.57 11.588-7.299 12.9z" fill="#CD6799"/></svg>